<svg id="그룹_20" data-name="그룹 20" xmlns="http://www.w3.org/2000/svg" xmlns:xlink="http://www.w3.org/1999/xlink" width="122.212" height="118.192" viewBox="0 0 122.212 118.192">
  <defs>
    <clipPath id="clip-path">
      <rect id="사각형_48" data-name="사각형 48" width="122.212" height="118.192" fill="none"/>
    </clipPath>
  </defs>
  <g id="그룹_19" data-name="그룹 19" clip-path="url(#clip-path)">
    <path id="패스_58" data-name="패스 58" d="M117.812,66.961a50.851,50.851,0,1,1-50.85-50.85,50.853,50.853,0,0,1,50.85,50.85" transform="translate(-7.071 -7.071)" fill="#ebebeb"/>
    <path id="패스_59" data-name="패스 59" d="M165.139,32.066V56.4c9.04-3.435,18.78-1.826,27.271,4.355l-2.032-3.677L183.859,44.9l8.57-8.482c-8.491-6.182-18.25-7.79-27.29-4.355" transform="translate(-72.478 -13.295)" fill="#3b55ff"/>
    <path id="패스_60" data-name="패스 60" d="M190.642,61.232a2.266,2.266,0,0,1-1.331-.433c-7.928-5.774-16.86-7.214-25.136-4.07a2.26,2.26,0,0,1-3.064-2.112V30.282a2.261,2.261,0,0,1,1.457-2.112c9.762-3.713,20.21-2.065,29.425,4.639a2.261,2.261,0,0,1,.258,3.434l-7.371,7.3,7.74,14.34a2.258,2.258,0,0,1-1.977,3.353m-17.67-10.666a30.122,30.122,0,0,1,11.883,2.5L180.1,44.187a2.259,2.259,0,0,1,.4-2.674l6.605-6.538c-6.881-4.225-14.379-5.306-21.477-3.084V51.522a28.769,28.769,0,0,1,7.34-.956" transform="translate(-70.71 -11.511)" fill="#060d49"/>
    <path id="패스_61" data-name="패스 61" d="M112.778,17.4V41.73a31.675,31.675,0,0,1,29.38.61V18.006a31.675,31.675,0,0,0-29.38-.61" transform="translate(-49.497 -6.18)" fill="#3b55ff"/>
    <path id="패스_62" data-name="패스 62" d="M140.391,42.826a2.259,2.259,0,0,1-1.092-.282,29.349,29.349,0,0,0-27.279-.566,2.26,2.26,0,0,1-3.269-2.023V15.621A2.263,2.263,0,0,1,110,13.6a33.875,33.875,0,0,1,31.482.654,2.261,2.261,0,0,1,1.168,1.979V40.566a2.262,2.262,0,0,1-2.26,2.26m-15.268-8.454a33.843,33.843,0,0,1,13.008,2.6V17.6a29.372,29.372,0,0,0-24.86-.543V36.513a33.862,33.862,0,0,1,11.852-2.141" transform="translate(-47.729 -4.405)" fill="#060d49"/>
    <path id="패스_63" data-name="패스 63" d="M108.75,118.192V2.26a2.26,2.26,0,0,1,4.52,0V118.192" transform="translate(-47.729)" fill="#060d49"/>
    <path id="패스_64" data-name="패스 64" d="M38.364,56.129c5.822,0,10.17-4.763,10.17-10.639V41.943c0-5.875-4.348-10.639-10.17-10.639s-10.17,4.763-10.17,10.639v3.548c0,5.875,4.348,10.639,10.17,10.639" transform="translate(-12.374 -13.739)" fill="#fff"/>
    <path id="패스_65" data-name="패스 65" d="M36.6,56.622c-6.97,0-12.43-5.666-12.43-12.9V40.175c0-7.234,5.46-12.9,12.43-12.9s12.43,5.666,12.43,12.9v3.548c0,7.233-5.46,12.9-12.43,12.9m0-24.825a8.067,8.067,0,0,0-7.91,8.379v3.548a7.923,7.923,0,1,0,15.82,0V40.175A8.067,8.067,0,0,0,36.6,31.8" transform="translate(-10.606 -11.971)" fill="#060d49"/>
    <path id="패스_66" data-name="패스 66" d="M22.108,88.611c-10.732,0-18.08,3.417-18.08,13.56v22.6a9.232,9.232,0,0,0,9.04,9.041l2.26,2.955v20.315h27.12V99.911h20.34a10.873,10.873,0,0,0,1.251-.072c6.871-.8,5.945-11.228-.972-11.228Z" transform="translate(-1.768 -38.89)" fill="#fff"/>
    <path id="패스_67" data-name="패스 67" d="M38.42,155.315V98.143a2.26,2.26,0,0,1,2.26-2.26h20.34a8.58,8.58,0,0,0,.991-.056,3,3,0,0,0,2.7-3.348A3.379,3.379,0,0,0,61.3,89.1H20.34C6.319,89.1,4.52,95.142,4.52,100.4V123a6.958,6.958,0,0,0,6.78,6.78,2.26,2.26,0,0,1,0,4.52A11.452,11.452,0,0,1,0,123V100.4c0-10.5,6.844-15.821,20.34-15.821H61.3a7.853,7.853,0,0,1,7.928,7.636,7.4,7.4,0,0,1-6.694,8.1,13.1,13.1,0,0,1-1.512.087H42.941v54.911" transform="translate(0 -37.122)" fill="#060d49"/>
    <path id="패스_68" data-name="패스 68" d="M20.139,165.921V111.01a2.26,2.26,0,1,1,4.52,0v54.911" transform="translate(-8.839 -47.729)" fill="#060d49"/>
    <path id="패스_69" data-name="패스 69" d="M44.306,188.9V163.371a2.26,2.26,0,1,1,4.52,0V188.9" transform="translate(-19.445 -70.71)" fill="#060d49"/>
  </g>
</svg>
