<svg id="그룹_23" data-name="그룹 23" xmlns="http://www.w3.org/2000/svg" xmlns:xlink="http://www.w3.org/1999/xlink" width="137.162" height="117.568" viewBox="0 0 137.162 117.568">
  <defs>
    <clipPath id="clip-path">
      <rect id="사각형_49" data-name="사각형 49" width="137.162" height="117.568" fill="none"/>
    </clipPath>
  </defs>
  <g id="그룹_22" data-name="그룹 22" clip-path="url(#clip-path)">
    <path id="패스_70" data-name="패스 70" d="M133.352,60.634a56.606,56.606,0,1,1-56.6-56.606,56.609,56.609,0,0,1,56.6,56.606" transform="translate(-9.253 -1.851)" fill="#ebebeb"/>
    <path id="패스_71" data-name="패스 71" d="M63.071,108.746a10.887,10.887,0,0,0-10.275-7.29H39.734V86.216l4.355,4.354h15.24c.415,0,.81-.018,1.188-.055,6.714-.645,5.949-10.831-.8-10.831H52.8L37.556,64.445H28.848a8.708,8.708,0,0,0-8.709,8.708v32.658A13.063,13.063,0,0,0,33.2,118.873H50.619L59.328,145H71.406Z" transform="translate(-9.253 -29.61)" fill="#3b55ff"/>
    <path id="패스_72" data-name="패스 72" d="M39.08,29.948A10.956,10.956,0,0,1,28.194,18.84v-3.7a10.888,10.888,0,1,1,21.772,0v3.7A10.956,10.956,0,0,1,39.08,29.948" transform="translate(-12.954 -1.851)" fill="#fff"/>
    <path id="패스_73" data-name="패스 73" d="M37.229,30.276A13.19,13.19,0,0,1,24.166,16.99v-3.7a13.065,13.065,0,1,1,26.126,0v3.7A13.19,13.19,0,0,1,37.229,30.276m0-25.921a8.728,8.728,0,0,0-8.709,8.931v3.7a8.711,8.711,0,1,0,17.417,0v-3.7a8.728,8.728,0,0,0-8.709-8.931" transform="translate(-11.103)" fill="#060d49"/>
    <path id="패스_74" data-name="패스 74" d="M57.477,145.328a2.177,2.177,0,0,1-2.064-1.489L47.2,119.2H31.351a15.258,15.258,0,0,1-15.24-15.24V71.3A10.9,10.9,0,0,1,27,60.417h8.709a2.176,2.176,0,0,1,1.539.638l14.6,14.6h6.022A7.533,7.533,0,0,1,65.5,83.064a7.141,7.141,0,0,1-6.628,7.768c-.442.042-.908.065-1.395.065H42.237A2.176,2.176,0,0,1,40.7,90.26L27.635,77.2a2.177,2.177,0,1,1,3.079-3.079L43.138,86.543H57.477q.513,0,.978-.046a2.9,2.9,0,0,0,2.694-3.224,3.231,3.231,0,0,0-3.281-3.262H50.946a2.176,2.176,0,0,1-1.539-.638l-14.6-14.6H27A6.539,6.539,0,0,0,20.466,71.3V103.96a10.9,10.9,0,0,0,10.886,10.886H48.769a2.174,2.174,0,0,1,2.064,1.489l8.709,26.126a2.178,2.178,0,0,1-2.064,2.867" transform="translate(-7.402 -27.759)" fill="#060d49"/>
    <path id="패스_75" data-name="패스 75" d="M86.209,163.832a2.178,2.178,0,0,1-2.12-1.689l-8.306-36.13a8.719,8.719,0,0,0-8.182-5.725H54.538a2.176,2.176,0,0,1-2.177-2.177V102.871a2.177,2.177,0,1,1,4.355,0v13.063H67.6a13.079,13.079,0,0,1,12.33,8.747,2.283,2.283,0,0,1,.068.232l8.334,36.254a2.176,2.176,0,0,1-1.635,2.61,2.2,2.2,0,0,1-.489.055" transform="translate(-24.058 -46.265)" fill="#060d49"/>
    <path id="패스_76" data-name="패스 76" d="M180.488,64.445h-9.694l-15.24,15.24h-6.922c-6.745,0-7.511,10.186-.8,10.831q.565.054,1.187.055h15.241l5.339-4.354v15.24H155.553a10.886,10.886,0,0,0-10.275,7.29L136.944,145h12.078l8.709-26.126h17.417A14.089,14.089,0,0,0,189.2,104.826V73.154a8.709,8.709,0,0,0-8.709-8.709" transform="translate(-62.92 -29.61)" fill="#fff"/>
    <path id="패스_77" data-name="패스 77" d="M196.164,29.948A10.956,10.956,0,0,0,207.05,18.84v-3.7a10.888,10.888,0,1,0-21.772,0v3.7a10.956,10.956,0,0,0,10.886,11.108" transform="translate(-85.128 -1.851)" fill="#fff"/>
    <path id="패스_78" data-name="패스 78" d="M194.313,30.276A13.19,13.19,0,0,1,181.25,16.99v-3.7a13.065,13.065,0,1,1,26.126,0v3.7a13.19,13.19,0,0,1-13.063,13.285m0-25.921a8.728,8.728,0,0,0-8.709,8.931v3.7a8.711,8.711,0,1,0,17.417,0v-3.7a8.728,8.728,0,0,0-8.709-8.931" transform="translate(-83.277)" fill="#060d49"/>
    <path id="패스_79" data-name="패스 79" d="M152.462,145.328a2.178,2.178,0,0,1-2.064-2.867l8.709-26.126a2.174,2.174,0,0,1,2.064-1.489h17.417a11.884,11.884,0,0,0,11.87-11.871V71.3a6.539,6.539,0,0,0-6.531-6.532h-8.791l-14.6,14.6a2.176,2.176,0,0,1-1.539.638h-6.923a3.231,3.231,0,0,0-3.281,3.262,2.9,2.9,0,0,0,2.692,3.223c.31.03.636.046.98.046H166.8l12.425-12.425a2.177,2.177,0,0,1,3.079,3.079L169.242,90.26a2.176,2.176,0,0,1-1.539.638h-15.24c-.489,0-.955-.023-1.4-.065a7.139,7.139,0,0,1-6.625-7.767,7.533,7.533,0,0,1,7.631-7.409h6.022l14.6-14.6a2.176,2.176,0,0,1,1.539-.638h9.693A10.9,10.9,0,0,1,194.813,71.3v31.672A16.243,16.243,0,0,1,178.588,119.2H162.74l-8.213,24.638a2.177,2.177,0,0,1-2.064,1.489" transform="translate(-66.36 -27.759)" fill="#060d49"/>
    <path id="패스_80" data-name="패스 80" d="M136.008,163.832a2.218,2.218,0,0,1-.462-.049,2.179,2.179,0,0,1-1.669-2.589l7.841-36.254a2.125,2.125,0,0,1,.075-.259,13.077,13.077,0,0,1,12.329-8.747h11.87V102.871a2.177,2.177,0,1,1,4.355,0v15.241a2.177,2.177,0,0,1-2.177,2.177H154.123A8.72,8.72,0,0,0,145.946,126l-7.812,36.115a2.177,2.177,0,0,1-2.126,1.717" transform="translate(-61.489 -46.265)" fill="#060d49"/>
    <path id="패스_81" data-name="패스 81" d="M130.739,113.1h-76.2a2.177,2.177,0,1,1,0-4.355h76.2a2.177,2.177,0,1,1,0,4.355" transform="translate(-24.058 -49.966)" fill="#060d49"/>
    <path id="패스_82" data-name="패스 82" d="M196.49,127.909H183.427a2.177,2.177,0,0,1,0-4.355H196.49a19.617,19.617,0,0,0,19.595-19.595V62.594a2.177,2.177,0,0,1,4.355,0V103.96a23.976,23.976,0,0,1-23.949,23.949" transform="translate(-83.277 -27.759)" fill="#060d49"/>
    <path id="패스_83" data-name="패스 83" d="M37.012,127.909H23.949A23.976,23.976,0,0,1,0,103.96V62.594a2.177,2.177,0,1,1,4.354,0V103.96a19.617,19.617,0,0,0,19.595,19.595H37.012a2.177,2.177,0,0,1,0,4.355" transform="translate(0 -27.759)" fill="#060d49"/>
  </g>
</svg>
