<svg id="그룹_25" data-name="그룹 25" xmlns="http://www.w3.org/2000/svg" xmlns:xlink="http://www.w3.org/1999/xlink" width="132.187" height="129.625" viewBox="0 0 132.187 129.625">
  <defs>
    <clipPath id="clip-path">
      <rect id="사각형_50" data-name="사각형 50" width="132.187" height="129.625" fill="none"/>
    </clipPath>
  </defs>
  <g id="그룹_24" data-name="그룹 24" clip-path="url(#clip-path)">
    <path id="패스_84" data-name="패스 84" d="M126.883,79.052a43.3,43.3,0,1,1-43.3-43.3,43.3,43.3,0,0,1,43.3,43.3" transform="translate(-17.487 -15.521)" fill="#ebebeb"/>
    <path id="패스_85" data-name="패스 85" d="M36.213,172.888a2.273,2.273,0,0,1-1.171-.325,63.545,63.545,0,0,1-30.376-45.6,2.28,2.28,0,0,1,4.514-.65,59,59,0,0,0,28.208,42.341,2.279,2.279,0,0,1-1.175,4.233" transform="translate(-2.016 -53.991)" fill="#bcc0c4"/>
    <path id="패스_86" data-name="패스 86" d="M171.447,172.541a2.279,2.279,0,0,1-1.2-4.22,59.081,59.081,0,0,0,27.652-42,2.28,2.28,0,0,1,4.514.65,63.629,63.629,0,0,1-29.78,45.237,2.261,2.261,0,0,1-1.191.338" transform="translate(-73.445 -53.993)" fill="#bcc0c4"/>
    <path id="패스_87" data-name="패스 87" d="M65.675,11.114A2.279,2.279,0,0,1,64.647,6.8a63.93,63.93,0,0,1,57.375,0,2.278,2.278,0,1,1-2.052,4.068,59.385,59.385,0,0,0-53.272,0,2.255,2.255,0,0,1-1.024.245" transform="translate(-27.523 0)" fill="#bcc0c4"/>
    <path id="패스_88" data-name="패스 88" d="M171.819,96.54a52.549,52.549,0,0,0,15.944-2.3,9.494,9.494,0,0,0,6.847-9.092c0-3.7-12.535-9.116-22.791-9.116s-22.791,5.413-22.791,9.116a9.494,9.494,0,0,0,6.847,9.092,52.549,52.549,0,0,0,15.944,2.3" transform="translate(-64.702 -33.008)" fill="#3b55ff"/>
    <path id="패스_89" data-name="패스 89" d="M170.07,97.07a55.168,55.168,0,0,1-16.586-2.395A11.835,11.835,0,0,1,145,83.4c0-6.181,15.4-11.4,25.07-11.4s25.07,5.215,25.07,11.4a11.835,11.835,0,0,1-8.484,11.28A55.168,55.168,0,0,1,170.07,97.07m0-20.512c-9.987,0-19.915,5.05-20.525,6.955a7.246,7.246,0,0,0,5.222,6.786,54.049,54.049,0,0,0,30.607,0,7.249,7.249,0,0,0,5.208-6.9c-.6-1.787-10.525-6.837-20.512-6.837" transform="translate(-62.953 -31.259)" fill="#060d49"/>
    <path id="패스_90" data-name="패스 90" d="M180.562,27.695c-5.892,0-11.4,4.776-11.4,10.668v8.291c0,5.892,5.5,10.668,11.4,10.668s11.4-4.776,11.4-10.668V38.363c0-5.892-5.5-10.668-11.4-10.668" transform="translate(-73.445 -12.024)" fill="#fff"/>
    <path id="패스_91" data-name="패스 91" d="M178.814,57.853c-7.411,0-13.675-5.929-13.675-12.946V36.614c0-7.018,6.263-12.947,13.675-12.947s13.675,5.929,13.675,12.947v8.293c0,7.018-6.263,12.946-13.675,12.946m0-29.628c-4.857,0-9.116,3.92-9.116,8.389v8.293c0,4.469,4.26,8.389,9.116,8.389s9.116-3.92,9.116-8.389V36.614c0-4.469-4.26-8.389-9.116-8.389" transform="translate(-71.697 -10.275)" fill="#060d49"/>
    <path id="패스_92" data-name="패스 92" d="M99.319,209.318a52.549,52.549,0,0,0,15.944-2.3,9.494,9.494,0,0,0,6.847-9.092c0-3.7-12.535-9.116-22.791-9.116s-22.791,5.413-22.791,9.116a9.494,9.494,0,0,0,6.847,9.092,52.549,52.549,0,0,0,15.944,2.3" transform="translate(-33.225 -81.972)" fill="#3b55ff"/>
    <path id="패스_93" data-name="패스 93" d="M97.57,209.848a55.169,55.169,0,0,1-16.586-2.395,11.835,11.835,0,0,1-8.484-11.28c0-6.181,15.4-11.4,25.07-11.4s25.07,5.215,25.07,11.4a11.835,11.835,0,0,1-8.484,11.28,55.169,55.169,0,0,1-16.586,2.395m0-20.512c-9.987,0-19.915,5.05-20.525,6.955a7.246,7.246,0,0,0,5.222,6.786,50.223,50.223,0,0,0,15.3,2.212,50.223,50.223,0,0,0,15.3-2.212,7.249,7.249,0,0,0,5.208-6.9c-.6-1.787-10.525-6.837-20.512-6.837" transform="translate(-31.477 -80.223)" fill="#060d49"/>
    <path id="패스_94" data-name="패스 94" d="M108.062,140.473c-5.892,0-11.4,4.776-11.4,10.668v8.291c0,5.892,5.5,10.668,11.4,10.668s11.4-4.776,11.4-10.668v-8.291c0-5.892-5.5-10.668-11.4-10.668" transform="translate(-41.969 -60.988)" fill="#fff"/>
    <path id="패스_95" data-name="패스 95" d="M106.314,170.631c-7.411,0-13.675-5.929-13.675-12.946v-8.293c0-7.018,6.263-12.947,13.675-12.947s13.675,5.929,13.675,12.947v8.293c0,7.018-6.263,12.946-13.675,12.946m0-29.628c-4.857,0-9.116,3.92-9.116,8.389v8.293c0,4.469,4.26,8.389,9.116,8.389s9.116-3.92,9.116-8.389v-8.293c0-4.469-4.26-8.389-9.116-8.389" transform="translate(-40.22 -59.239)" fill="#060d49"/>
    <path id="패스_96" data-name="패스 96" d="M26.819,96.54a52.55,52.55,0,0,0,15.944-2.3,9.494,9.494,0,0,0,6.847-9.092c0-3.7-12.535-9.116-22.791-9.116S4.028,81.441,4.028,85.144a9.494,9.494,0,0,0,6.847,9.092,52.549,52.549,0,0,0,15.944,2.3" transform="translate(-1.749 -33.008)" fill="#3b55ff"/>
    <path id="패스_97" data-name="패스 97" d="M25.07,97.07A55.168,55.168,0,0,1,8.484,94.676,11.835,11.835,0,0,1,0,83.4C0,77.215,15.4,72,25.07,72s25.07,5.215,25.07,11.4a11.835,11.835,0,0,1-8.484,11.28A55.168,55.168,0,0,1,25.07,97.07m0-20.512c-9.987,0-19.915,5.05-20.525,6.955A7.247,7.247,0,0,0,9.766,90.3a50.223,50.223,0,0,0,15.3,2.212,50.223,50.223,0,0,0,15.3-2.212,7.249,7.249,0,0,0,5.208-6.9c-.6-1.787-10.525-6.837-20.512-6.837" transform="translate(0 -31.259)" fill="#060d49"/>
    <path id="패스_98" data-name="패스 98" d="M35.562,27.695c-5.892,0-11.4,4.776-11.4,10.668v8.291c0,5.892,5.5,10.668,11.4,10.668s11.4-4.776,11.4-10.668V38.363c0-5.892-5.5-10.668-11.4-10.668" transform="translate(-10.492 -12.024)" fill="#fff"/>
    <path id="패스_99" data-name="패스 99" d="M33.814,57.853c-7.411,0-13.675-5.929-13.675-12.946V36.614c0-7.018,6.263-12.947,13.675-12.947S47.488,29.6,47.488,36.614v8.293c0,7.018-6.263,12.946-13.675,12.946m0-29.628c-4.857,0-9.116,3.92-9.116,8.389v8.293c0,4.469,4.26,8.389,9.116,8.389s9.116-3.92,9.116-8.389V36.614c0-4.469-4.26-8.389-9.116-8.389" transform="translate(-8.744 -10.275)" fill="#060d49"/>
  </g>
</svg>
