<svg xmlns="http://www.w3.org/2000/svg" width="107.451" height="21.183" viewBox="0 0 107.451 21.183">
  <g id="logo-kocca" transform="translate(-237.367 -1309.275)">
    <path id="패스_1" data-name="패스 1" d="M170.271,19.637h.782v1.889h.019c.1-.158.211-.3.314-.445l1.126-1.444h.973L172,21.387l1.582,2.358h-.922l-1.223-1.883-.383.439v1.444h-.782Z" transform="translate(69 1306.645)" fill="#6a1f74"/>
    <path id="패스_2" data-name="패스 2" d="M178.146,21.648a1.987,1.987,0,0,1-2.069,2.165,1.94,1.94,0,0,1-1.985-2.092,2.008,2.008,0,0,1,2.049-2.152,1.938,1.938,0,0,1,2,2.079m-3.221.061c0,.836.441,1.505,1.2,1.505s1.191-.676,1.191-1.536c0-.773-.4-1.512-1.191-1.512s-1.2.7-1.2,1.543" transform="translate(69 1306.645)" fill="#6a1f74"/>
    <path id="패스_3" data-name="패스 3" d="M179.143,19.691a7.942,7.942,0,0,1,1.191-.085,2.077,2.077,0,0,1,1.331.329,1.02,1.02,0,0,1,.371.823,1.1,1.1,0,0,1-.781,1.031v.018a1.053,1.053,0,0,1,.6.793,8,8,0,0,0,.338,1.146h-.812a5.478,5.478,0,0,1-.288-.969c-.123-.537-.327-.708-.776-.72h-.4v1.689h-.781Zm.781,1.818h.466c.533,0,.865-.269.865-.678,0-.451-.332-.658-.844-.658a2.285,2.285,0,0,0-.487.038Z" transform="translate(69 1306.645)" fill="#6a1f74"/>
    <path id="패스_4" data-name="패스 4" d="M185.519,21.922h-1.626v1.207h1.818v.616h-2.6V19.637h2.509v.615h-1.722v1.06h1.626Z" transform="translate(69 1306.645)" fill="#6a1f74"/>
    <path id="패스_5" data-name="패스 5" d="M187.586,22.58l-.37,1.165H186.4l1.384-4.108h1l1.4,4.108h-.845l-.39-1.165Zm1.236-.566L188.483,21c-.085-.25-.154-.531-.218-.768h-.013c-.064.237-.129.524-.205.768l-.333,1.012Z" transform="translate(69 1306.645)" fill="#6a1f74"/>
    <path id="패스_6" data-name="패스 6" d="M195.851,23.623a2.813,2.813,0,0,1-1.113.189,1.994,1.994,0,0,1-2.2-2.072,2.123,2.123,0,0,1,2.3-2.172,2.575,2.575,0,0,1,1.05.184l-.173.6a2.176,2.176,0,0,0-.845-.159A1.4,1.4,0,0,0,193.36,21.7a1.381,1.381,0,0,0,1.505,1.481,2.291,2.291,0,0,0,.858-.153Z" transform="translate(69 1306.645)" fill="#6a1f74"/>
    <path id="패스_7" data-name="패스 7" d="M196.842,19.691a7.953,7.953,0,0,1,1.191-.085,2.082,2.082,0,0,1,1.332.329,1.019,1.019,0,0,1,.37.823,1.1,1.1,0,0,1-.781,1.031v.018a1.048,1.048,0,0,1,.6.793,8.061,8.061,0,0,0,.34,1.146h-.813a5.478,5.478,0,0,1-.288-.969c-.123-.537-.327-.708-.776-.72h-.4v1.689h-.781Zm.781,1.818h.467c.532,0,.864-.269.864-.678,0-.451-.332-.658-.844-.658a2.292,2.292,0,0,0-.487.038Z" transform="translate(69 1306.645)" fill="#6a1f74"/>
    <path id="패스_8" data-name="패스 8" d="M203.218,21.922h-1.626v1.207h1.819v.616H200.8V19.637h2.509v.615h-1.722v1.06h1.626Z" transform="translate(69 1306.645)" fill="#6a1f74"/>
    <path id="패스_9" data-name="패스 9" d="M205.285,22.58l-.371,1.165H204.1l1.384-4.108h1l1.4,4.108h-.843l-.392-1.165Zm1.236-.566L206.182,21c-.083-.25-.154-.531-.217-.768h-.014c-.064.237-.128.524-.205.768l-.333,1.012Z" transform="translate(69 1306.645)" fill="#6a1f74"/>
    <path id="패스_10" data-name="패스 10" d="M209.638,20.264h-1.229v-.627h3.258v.627h-1.242v3.481h-.787Z" transform="translate(69 1306.645)" fill="#6a1f74"/>
    <rect id="사각형_40" data-name="사각형 40" width="0.788" height="4.108" transform="translate(281.493 1326.281)" fill="#6a1f74"/>
    <path id="패스_11" data-name="패스 11" d="M215.489,23.745l-1.4-4.108h.858l.588,1.864c.167.519.309,1,.423,1.5h.013c.116-.487.269-.987.442-1.487l.627-1.877h.839l-1.491,4.108Z" transform="translate(69 1306.645)" fill="#6a1f74"/>
    <path id="패스_12" data-name="패스 12" d="M221.084,21.922h-1.626v1.207h1.818v.616H218.67V19.637h2.511v.615h-1.723v1.06h1.626Z" transform="translate(69 1306.645)" fill="#6a1f74"/>
    <path id="패스_13" data-name="패스 13" d="M226.9,23.623a2.809,2.809,0,0,1-1.113.189,1.994,1.994,0,0,1-2.2-2.072,2.123,2.123,0,0,1,2.305-2.172,2.571,2.571,0,0,1,1.05.184l-.172.6a2.186,2.186,0,0,0-.846-.159A1.4,1.4,0,0,0,224.4,21.7a1.381,1.381,0,0,0,1.5,1.481,2.293,2.293,0,0,0,.859-.153Z" transform="translate(69 1306.645)" fill="#6a1f74"/>
    <path id="패스_14" data-name="패스 14" d="M231.415,21.648a1.986,1.986,0,0,1-2.068,2.165,1.939,1.939,0,0,1-1.984-2.092,2.008,2.008,0,0,1,2.048-2.152,1.937,1.937,0,0,1,2,2.079m-3.22.061c0,.836.442,1.505,1.2,1.505s1.19-.676,1.19-1.536c0-.773-.4-1.512-1.19-1.512s-1.2.7-1.2,1.543" transform="translate(69 1306.645)" fill="#6a1f74"/>
    <path id="패스_15" data-name="패스 15" d="M232.113,23.745V19.637h.895l1.115,1.762a10.951,10.951,0,0,1,.735,1.378h.013c-.052-.55-.071-1.08-.071-1.708V19.637h.731v4.108h-.814l-1.127-1.81a13.5,13.5,0,0,1-.775-1.415l-.017.006c.031.531.037,1.073.037,1.75v1.469Z" transform="translate(69 1306.645)" fill="#6a1f74"/>
    <path id="패스_16" data-name="패스 16" d="M237.285,20.264h-1.23v-.627h3.259v.627h-1.242v3.481h-.787Z" transform="translate(69 1306.645)" fill="#6a1f74"/>
    <path id="패스_17" data-name="패스 17" d="M242.252,21.922h-1.626v1.207h1.819v.616h-2.606V19.637h2.51v.615h-1.723v1.06h1.626Z" transform="translate(69 1306.645)" fill="#6a1f74"/>
    <path id="패스_18" data-name="패스 18" d="M243.155,23.745V19.637h.9l1.116,1.762a11.083,11.083,0,0,1,.735,1.378h.014c-.053-.55-.072-1.08-.072-1.708V19.637h.731v4.108h-.814l-1.127-1.81a13.506,13.506,0,0,1-.775-1.415l-.018.006c.032.531.037,1.073.037,1.75v1.469Z" transform="translate(69 1306.645)" fill="#6a1f74"/>
    <path id="패스_19" data-name="패스 19" d="M248.326,20.264H247.1v-.627h3.258v.627h-1.241v3.481h-.788Z" transform="translate(69 1306.645)" fill="#6a1f74"/>
    <path id="패스_20" data-name="패스 20" d="M252.833,22.58l-.372,1.165h-.814l1.385-4.108h1l1.4,4.108h-.844L254.2,22.58Zm1.235-.566L253.729,21c-.083-.25-.154-.531-.217-.768H253.5c-.064.237-.127.524-.205.768l-.332,1.012Z" transform="translate(69 1306.645)" fill="#6a1f74"/>
    <path id="패스_21" data-name="패스 21" d="M259.516,23.556a4.46,4.46,0,0,1-1.39.231,2.406,2.406,0,0,1-1.691-.547,1.993,1.993,0,0,1-.6-1.513,2.15,2.15,0,0,1,2.4-2.134,3,3,0,0,1,1.146.2l-.174.6a2.434,2.434,0,0,0-.978-.176,1.412,1.412,0,0,0-1.569,1.475,1.39,1.39,0,0,0,1.5,1.488,1.6,1.6,0,0,0,.6-.086V22.069h-.761v-.592h1.523Z" transform="translate(69 1306.645)" fill="#6a1f74"/>
    <path id="패스_22" data-name="패스 22" d="M262.755,21.922h-1.626v1.207h1.818v.616h-2.606V19.637h2.51v.615h-1.722v1.06h1.626Z" transform="translate(69 1306.645)" fill="#6a1f74"/>
    <path id="패스_23" data-name="패스 23" d="M263.657,23.745V19.637h.895l1.116,1.762a11.085,11.085,0,0,1,.735,1.378h.012c-.05-.55-.07-1.08-.07-1.708V19.637h.73v4.108h-.813l-1.127-1.81a13.506,13.506,0,0,1-.775-1.415l-.018.006c.032.531.038,1.073.038,1.75v1.469Z" transform="translate(69 1306.645)" fill="#6a1f74"/>
    <path id="패스_24" data-name="패스 24" d="M271.1,23.623a2.813,2.813,0,0,1-1.113.189,1.994,1.994,0,0,1-2.2-2.072,2.123,2.123,0,0,1,2.3-2.172,2.577,2.577,0,0,1,1.051.184l-.173.6a2.182,2.182,0,0,0-.846-.159,1.4,1.4,0,0,0-1.511,1.512,1.382,1.382,0,0,0,1.5,1.481,2.3,2.3,0,0,0,.859-.153Z" transform="translate(69 1306.645)" fill="#6a1f74"/>
    <path id="패스_25" data-name="패스 25" d="M272.766,23.745V22.033l-1.365-2.4h.9l.517,1.054c.148.305.258.537.372.817h.013c.109-.262.231-.519.378-.817l.519-1.054h.889l-1.434,2.377v1.731Z" transform="translate(69 1306.645)" fill="#6a1f74"/>
    <path id="패스_26" data-name="패스 26" d="M175.012,8.79a2.9,2.9,0,0,0-5.784,0,2.9,2.9,0,0,0,5.784,0m-4.169,0a1.279,1.279,0,1,1,1.277,1.215,1.249,1.249,0,0,1-1.277-1.215" transform="translate(69 1306.645)" fill="#6a1f74"/>
    <path id="패스_27" data-name="패스 27" d="M268.739,8.206a2.768,2.768,0,0,0,2.892-2.617,2.907,2.907,0,0,0-5.785,0,2.769,2.769,0,0,0,2.893,2.617m0-3.728a1.175,1.175,0,0,1,1.227,1.111,1.234,1.234,0,0,1-2.455,0,1.176,1.176,0,0,1,1.228-1.111" transform="translate(69 1306.645)" fill="#6a1f74"/>
    <path id="패스_28" data-name="패스 28" d="M253.878,6.726a2.926,2.926,0,0,0,5.785,0,2.3,2.3,0,0,0-.76-1.675h1.572a.827.827,0,0,0,.717-.414l.551-.952H257.6V2.63h-1.678V3.684H251.8V5.051h2.84a2.3,2.3,0,0,0-.759,1.675M256.77,7.78a1.152,1.152,0,0,1-1.227-1.054,1.241,1.241,0,0,1,2.454,0A1.152,1.152,0,0,1,256.77,7.78" transform="translate(69 1306.645)" fill="#6a1f74"/>
    <path id="패스_29" data-name="패스 29" d="M256.77,11.872c-1.743,0-3.16,1.137-3.16,2.535s1.417,2.536,3.16,2.536,3.16-1.138,3.16-2.536-1.417-2.535-3.16-2.535m0,3.611a1.231,1.231,0,0,1-1.341-1.076,1.374,1.374,0,0,1,2.682,0,1.231,1.231,0,0,1-1.341,1.076" transform="translate(69 1306.645)" fill="#6a1f74"/>
    <path id="패스_30" data-name="패스 30" d="M178.576,3.033H176.89V12.74h1.686V8.787h1.436a.828.828,0,0,0,.718-.414l.628-1.088h-2.782Z" transform="translate(69 1306.645)" fill="#6a1f74"/>
    <path id="패스_31" data-name="패스 31" d="M171.9,12.277h-1.705v4.058h7.941a.829.829,0,0,0,.719-.414l.627-1.088H171.9Z" transform="translate(69 1306.645)" fill="#6a1f74"/>
    <path id="패스_32" data-name="패스 32" d="M192.511,3.733h-8.4v1.5h6.691c0,.954-.033,1.595-.1,2.711h-8.49v1.5h5.1v1.988h-3.538v1.515h7.055v3.38h1.706v-4.9h-3.532V9.449h4.511a.828.828,0,0,0,.718-.414l.627-1.088h-2.52c.112-1.852.169-2.994.169-4.214" transform="translate(69 1306.645)" fill="#6a1f74"/>
    <path id="패스_33" data-name="패스 33" d="M215.814,9.564q-1.839.164-3.713.163V8.153h2.416V6.736H212.1V5.216h3.45v-1.5h-5.108V11.23q2.294,0,4.026-.091a.83.83,0,0,0,.674-.413Z" transform="translate(69 1306.645)" fill="#6a1f74"/>
    <rect id="사각형_41" data-name="사각형 41" width="1.677" height="9.856" transform="translate(288.597 1309.677)" fill="#6a1f74"/>
    <path id="패스_34" data-name="패스 34" d="M215.26,8.175h1.732v4.279h1.678V3.31h-1.678V6.743H215.26Z" transform="translate(69 1306.645)" fill="#6a1f74"/>
    <path id="패스_35" data-name="패스 35" d="M214.475,12.277H212.77v4.045h7.846a.828.828,0,0,0,.717-.414l.637-1.1h-7.495Z" transform="translate(69 1306.645)" fill="#6a1f74"/>
    <path id="패스_36" data-name="패스 36" d="M227.523,8.545a6.9,6.9,0,0,1-3.335,1.361l1.123,1.38A8.192,8.192,0,0,0,229.9,8.3a6.73,6.73,0,0,0,1.99,1.779,9.522,9.522,0,0,0,2.706,1.2l.974-1.4a7.172,7.172,0,0,1-3.338-1.365,3.554,3.554,0,0,1-1.458-2.4H233.4a.829.829,0,0,0,.716-.414l.6-1.039h-3.949V3.033h-1.705V4.656H225.1V6.109h3.939a3.767,3.767,0,0,1-1.517,2.436" transform="translate(69 1306.645)" fill="#6a1f74"/>
    <path id="패스_37" data-name="패스 37" d="M223.856,14.9h11.581a.829.829,0,0,0,.716-.414l.62-1.075H223.856Z" transform="translate(69 1306.645)" fill="#6a1f74"/>
    <path id="패스_38" data-name="패스 38" d="M241.741,12.283h-1.7v4.024h8.143a.829.829,0,0,0,.717-.414l.628-1.088h-7.784Z" transform="translate(69 1306.645)" fill="#6a1f74"/>
    <rect id="사각형_42" data-name="사각형 42" width="1.665" height="9.828" transform="translate(315.909 1309.677)" fill="#6a1f74"/>
    <path id="패스_39" data-name="패스 39" d="M266.1,12.283v4.054h8.375a.833.833,0,0,0,.718-.415l.628-1.089h-8.03v-2.55Z" transform="translate(69 1306.645)" fill="#6a1f74"/>
    <path id="패스_40" data-name="패스 40" d="M271.006,11.1v1.38h2.523v.99h1.705V3.033h-1.705V11.1h-2.523Z" transform="translate(69 1306.645)" fill="#6a1f74"/>
    <path id="패스_41" data-name="패스 41" d="M204.793,9.029l1.644.114q.2-1.879.2-5.469h-8.6v1.5h6.927l-.014.862-6.913.255V7.712l6.873-.364q-.062,1.21-.108,1.681" transform="translate(69 1306.645)" fill="#6a1f74"/>
    <path id="패스_42" data-name="패스 42" d="M199.733,12.283h-1.706v4.05h8.191a.831.831,0,0,0,.718-.415l.627-1.089h-7.83Z" transform="translate(69 1306.645)" fill="#6a1f74"/>
    <path id="패스_43" data-name="패스 43" d="M202.365,8.032h-1.72V9.726h-4.39v1.5h10.7a.825.825,0,0,0,.718-.414l.629-1.088h-5.941Z" transform="translate(69 1306.645)" fill="#6a1f74"/>
    <path id="패스_44" data-name="패스 44" d="M250.714,11.209h11.349a.829.829,0,0,0,.718-.414l.583-1.009h-12.65Z" transform="translate(69 1306.645)" fill="#6a1f74"/>
    <path id="패스_45" data-name="패스 45" d="M268.251,12.821H269.9V10.4q.742-.033,1.483-.077a.831.831,0,0,0,.669-.412l.664-1.153q-3.564.254-8.166.26V10.56q1.475,0,3.7-.093Z" transform="translate(69 1306.645)" fill="#6a1f74"/>
    <path id="패스_46" data-name="패스 46" d="M171.267,3.033V4.215h-2.9V5.646h6.447a.828.828,0,0,0,.716-.414l.587-1.017h-3.145V3.033Z" transform="translate(69 1306.645)" fill="#6a1f74"/>
    <path id="패스_47" data-name="패스 47" d="M241.755,8.559a7.539,7.539,0,0,0,2.917,2.585l1.075-1.361a5.278,5.278,0,0,1-2.288-1.5,3.341,3.341,0,0,1-.9-2.261V5.155h1.825a.828.828,0,0,0,.717-.415l.616-1.066h-7.548V5.155h2.686V6.08a3.546,3.546,0,0,1-.948,2.283A5.043,5.043,0,0,1,237.6,9.979l1.2,1.254a8.608,8.608,0,0,0,2.95-2.674" transform="translate(69 1306.645)" fill="#6a1f74"/>
  </g>
</svg>
