<svg xmlns="http://www.w3.org/2000/svg" width="116.714" height="26.356" viewBox="0 0 116.714 26.356">
  <g id="logo-mcst" transform="translate(-69 -1306.645)">
    <path id="패스_48" data-name="패스 48" d="M26.356,13.178A13.178,13.178,0,1,1,13.178,0,13.178,13.178,0,0,1,26.356,13.178" transform="translate(69 1306.645)" fill="#fff"/>
    <path id="패스_49" data-name="패스 49" d="M19.132,12.3a4.186,4.186,0,0,0-5.954,1.25A4.19,4.19,0,0,1,5.6,12.4h0a.416.416,0,0,0-.012-.044c0-.017-.008-.035-.013-.052a5.38,5.38,0,0,1-.215-1.665c0-3.756,3.852-7.937,9.4-7.937A10.582,10.582,0,0,1,24.535,9.43c-.014-.044-.027-.086-.042-.128A11.967,11.967,0,0,0,1.207,13.183c0,5.906,4.26,10.963,10.17,10.963a9.612,9.612,0,0,0,9.334-6.285A4.613,4.613,0,0,0,19.132,12.3" transform="translate(69 1306.645)" fill="#003668"/>
    <path id="패스_50" data-name="패스 50" d="M24.61,9.662A10.551,10.551,0,0,0,14.763,2.7c-5.549,0-9.4,4.181-9.4,7.936A5.38,5.38,0,0,0,5.577,12.3a3.527,3.527,0,0,1-.111-.855c0-3.91,3.916-6.62,7.941-6.62a9.866,9.866,0,0,1,9.866,9.865,10.875,10.875,0,0,1-6.029,9.744v0a11.972,11.972,0,0,0,7.891-11.255,11.85,11.85,0,0,0-.526-3.521" transform="translate(69 1306.645)" fill="#e6002d"/>
    <path id="패스_51" data-name="패스 51" d="M41.836,13.2v1.316h-4.7v1.852H35.622V14.515H30.83V13.2ZM31.714,7.374H40.95v4.6H31.714Zm1.491,7.986v2.322H41.1V19H31.714V15.36Zm6.269-6.711H33.179v2.094h6.295Z" transform="translate(69 1306.645)" fill="#595656"/>
    <path id="패스_52" data-name="패스 52" d="M50.893,18H43.041V16.7H46.2v-1.49a2.609,2.609,0,0,1-.4-.134,3.128,3.128,0,0,1-.94-.577,2.8,2.8,0,0,1-.63-.867,2.433,2.433,0,0,1-.229-1.04,2.386,2.386,0,0,1,.229-1.033,2.832,2.832,0,0,1,.63-.86,2.925,2.925,0,0,1,.933-.583,3.074,3.074,0,0,1,1.134-.208,3.011,3.011,0,0,1,1.127.208,2.775,2.775,0,0,1,.914.583,2.9,2.9,0,0,1,.636.86,2.322,2.322,0,0,1,.236,1.033,2.368,2.368,0,0,1-.236,1.04,2.87,2.87,0,0,1-.636.867,2.987,2.987,0,0,1-.914.577,2.442,2.442,0,0,1-.442.148V16.7h3.288ZM46.088,8.421V7.146H47.7V8.421h2.913V9.7H43.176V8.421Zm2.3,4.161a1.372,1.372,0,0,0-.43-1.013,1.508,1.508,0,0,0-2.095,0,1.379,1.379,0,0,0-.429,1.013,1.4,1.4,0,0,0,.429,1.02,1.491,1.491,0,0,0,2.095,0,1.4,1.4,0,0,0,.43-1.02M53.216,19.2H51.739V7.226h1.477V12.42h1.53v1.437h-1.53Z" transform="translate(69 1306.645)" fill="#595656"/>
    <path id="패스_53" data-name="패스 53" d="M55.4,9.7V8.421h2.537V7.146H59.51V8.421H61.9V9.7H59.188l2.846,7.53-1.3.443-2-5.423-2,5.517-1.344-.429L58.25,9.7ZM62.893,7.24h1.382V19.132H62.893V13.347H61.336V11.992h1.557ZM65.4,7.226H66.84V19.2H65.4Z" transform="translate(69 1306.645)" fill="#595656"/>
    <path id="패스_54" data-name="패스 54" d="M78.424,15.536v3.691H76.933V16.81H68.907V15.536h1.9l.014-1.4H68.3V12.85H79.31v1.288H76.772v1.4ZM76.759,9.683a2.411,2.411,0,0,1-.241,1.061,3.3,3.3,0,0,1-.631.885,3.277,3.277,0,0,1-.94.584,2.971,2.971,0,0,1-1.14.22,3.028,3.028,0,0,1-1.149-.22,3.229,3.229,0,0,1-.946-.584,3.252,3.252,0,0,1-.63-.885,2.438,2.438,0,0,1,0-2.122,3.272,3.272,0,0,1,.63-.886,3.064,3.064,0,0,1,.946-.6,3.01,3.01,0,0,1,1.149-.221,2.954,2.954,0,0,1,1.14.221,3.106,3.106,0,0,1,.94.6,3.319,3.319,0,0,1,.631.886,2.411,2.411,0,0,1,.241,1.061m-4.578,5.853H75.4v-1.4H72.2ZM75.3,9.683a1.379,1.379,0,0,0-.437-1.028,1.457,1.457,0,0,0-1.053-.422,1.481,1.481,0,0,0-1.061.422A1.371,1.371,0,0,0,72.3,9.683a1.386,1.386,0,0,0,.444,1.033,1.472,1.472,0,0,0,1.061.43,1.449,1.449,0,0,0,1.053-.43A1.394,1.394,0,0,0,75.3,9.683" transform="translate(69 1306.645)" fill="#595656"/>
    <path id="패스_55" data-name="패스 55" d="M87.994,12.959v1.3H80.84v-1.3h2.416v-2.6h1.41v2.6Zm-1.865-1.1V8.8H81.175V7.469h6.4v4.389Zm-3.262,3.354v2.431h8.282v1.314H81.377V15.212Zm7.959-.536H89.337V7.226h1.489v2.927h1.531v1.422H90.826Z" transform="translate(69 1306.645)" fill="#595656"/>
    <path id="패스_56" data-name="패스 56" d="M95.792,12.367V10.031H97.2v2.336h3.33v1.248H93.376V12.367Zm2.873-1.074V8.783H93.711V7.468h6.4v3.825Zm3.624,5.531a2.391,2.391,0,0,1-.242,1.067,3.114,3.114,0,0,1-.644.878,2.908,2.908,0,0,1-.925.6,3.113,3.113,0,0,1-2.309,0,3.052,3.052,0,0,1-.941-.6,3.014,3.014,0,0,1-.637-.878,2.428,2.428,0,0,1-.236-1.067,2.521,2.521,0,0,1,.236-1.081,2.985,2.985,0,0,1,.637-.892,3.234,3.234,0,0,1,.941-.584,3.113,3.113,0,0,1,2.309,0,2.887,2.887,0,0,1,1.569,1.476,2.483,2.483,0,0,1,.242,1.081m-1.464-.014a1.426,1.426,0,0,0-.442-1.053,1.46,1.46,0,0,0-1.06-.436,1.48,1.48,0,0,0-1.068.436,1.414,1.414,0,0,0-.449,1.053,1.367,1.367,0,0,0,.449,1.04,1.506,1.506,0,0,0,1.068.424,1.485,1.485,0,0,0,1.06-.424,1.378,1.378,0,0,0,.442-1.04m2.537-2.993h-1.489V7.226h1.489V9.67h1.531v1.395h-1.531Z" transform="translate(69 1306.645)" fill="#595656"/>
    <path id="패스_57" data-name="패스 57" d="M105.707,14.788h11.007V16.1h-4.765v3.087h-1.49V16.1h-4.752Zm2.349-5.853h6.3V7.419h1.475v5.758h-9.234V7.419h1.463Zm6.3,1.289h-6.3v1.651h6.3Z" transform="translate(69 1306.645)" fill="#595656"/>
  </g>
</svg>
